<?xml version="1.0" encoding="utf-8" standalone="no"?>
<!DOCTYPE svg PUBLIC "-//W3C//DTD SVG 1.1//EN"
  "http://www.w3.org/Graphics/SVG/1.1/DTD/svg11.dtd">
<svg xmlns:xlink="http://www.w3.org/1999/xlink" width="547.2pt" height="244.8pt" viewBox="0 0 547.2 244.8" xmlns="http://www.w3.org/2000/svg" version="1.1">
 <metadata>
  <rdf:RDF xmlns:dc="http://purl.org/dc/elements/1.1/" xmlns:cc="http://creativecommons.org/ns#" xmlns:rdf="http://www.w3.org/1999/02/22-rdf-syntax-ns#">
   <cc:Work>
    <dc:type rdf:resource="http://purl.org/dc/dcmitype/StillImage"/>
    <dc:format>image/svg+xml</dc:format>
    <dc:creator>
     <cc:Agent>
      <dc:title>Matplotlib v3.11.2, https://matplotlib.org/</dc:title>
     </cc:Agent>
    </dc:creator>
   </cc:Work>
  </rdf:RDF>
 </metadata>
 <defs>
  <style type="text/css">*{stroke-linejoin: round; stroke-linecap: butt}</style>
 </defs>
 <g id="figure_1">
  <g id="patch_1">
   <path d="M 0 244.8 
L 547.2 244.8 
L 547.2 0 
L 0 0 
L 0 244.8 
z
" style="fill: none; opacity: 0"/>
  </g>
  <g id="axes_1">
   <g id="patch_2">
    <path d="M 49.29 205.58 
L 536.4 205.58 
L 536.4 28.66952 
L 49.29 28.66952 
L 49.29 205.58 
z
" style="fill: none"/>
   </g>
   <g id="matplotlib.axis_1">
    <g id="xtick_1">
     <g id="line2d_1"/>
     <g id="text_1">
      <!-- privileged -->
      <g style="fill: #ebebec" transform="translate(104.979559 220.9) scale(0.1 -0.1)">
       <defs>
        <path id="UbuntuMono-Regular-53" d="M 531 -1184 
L 531 3213 
Q 710 3264 998 3325 
Q 1286 3386 1696 3386 
Q 2163 3386 2518 3178 
Q 2874 2970 3075 2579 
Q 3277 2189 3277 1651 
Q 3277 1152 3101 761 
Q 2925 371 2598 147 
Q 2272 -77 1824 -77 
Q 1530 -77 1322 -6 
Q 1114 64 1030 141 
L 1030 -1184 
L 531 -1184 
z
M 1786 390 
Q 2131 390 2345 560 
Q 2560 730 2659 1018 
Q 2758 1306 2758 1658 
Q 2758 2278 2457 2604 
Q 2157 2931 1702 2931 
Q 1414 2931 1260 2905 
Q 1107 2880 1030 2848 
L 1030 672 
Q 1139 570 1353 480 
Q 1568 390 1786 390 
z
" transform="scale(0.015625)"/>
        <path id="UbuntuMono-Regular-55" d="M 806 0 
L 806 3149 
Q 1171 3264 1539 3328 
Q 1907 3392 2253 3392 
Q 2419 3392 2547 3385 
Q 2675 3379 2803 3360 
Q 2931 3341 3098 3309 
L 3008 2880 
Q 2848 2925 2729 2944 
Q 2611 2963 2499 2966 
Q 2387 2970 2240 2970 
Q 2003 2970 1769 2938 
Q 1536 2906 1306 2835 
L 1306 0 
L 806 0 
z
" transform="scale(0.015625)"/>
        <path id="UbuntuMono-Regular-4c" d="M 2445 -77 
Q 2035 -77 1808 70 
Q 1581 218 1491 509 
Q 1402 800 1402 1248 
L 1402 2886 
L 422 2886 
L 422 3315 
L 1888 3315 
L 1888 1280 
Q 1888 915 1955 720 
Q 2022 525 2153 454 
Q 2285 384 2464 384 
Q 2694 384 2870 441 
Q 3046 499 3117 538 
L 3187 102 
Q 3174 90 3068 45 
Q 2963 0 2800 -38 
Q 2637 -77 2445 -77 
z
M 1504 3859 
Q 1325 3859 1197 3984 
Q 1069 4109 1069 4314 
Q 1069 4525 1197 4646 
Q 1325 4768 1504 4768 
Q 1690 4768 1811 4646 
Q 1933 4525 1933 4314 
Q 1933 4109 1811 3984 
Q 1690 3859 1504 3859 
z
" transform="scale(0.015625)"/>
        <path id="UbuntuMono-Regular-59" d="M 1536 0 
Q 1318 454 1081 995 
Q 845 1536 630 2125 
Q 416 2714 250 3315 
L 806 3315 
Q 934 2886 1094 2384 
Q 1254 1882 1436 1414 
Q 1619 947 1792 602 
Q 1920 858 2057 1190 
Q 2195 1523 2329 1891 
Q 2464 2259 2585 2624 
Q 2707 2989 2803 3315 
L 3334 3315 
Q 3168 2714 2944 2125 
Q 2720 1536 2480 995 
Q 2240 454 2016 0 
L 1536 0 
z
" transform="scale(0.015625)"/>
        <path id="UbuntuMono-Regular-4f" d="M 2445 -77 
Q 2022 -77 1798 73 
Q 1574 224 1488 518 
Q 1402 813 1402 1261 
L 1402 4499 
L 422 4499 
L 422 4934 
L 1888 4934 
L 1888 1280 
Q 1888 922 1949 726 
Q 2010 531 2131 457 
Q 2253 384 2445 384 
Q 2643 384 2819 429 
Q 2995 474 3117 538 
L 3187 102 
Q 3098 51 2880 -13 
Q 2662 -77 2445 -77 
z
" transform="scale(0.015625)"/>
        <path id="UbuntuMono-Regular-48" d="M 1997 -77 
Q 1414 -77 1040 156 
Q 666 390 486 787 
Q 307 1184 307 1658 
Q 307 2099 441 2425 
Q 576 2752 803 2966 
Q 1030 3181 1305 3286 
Q 1581 3392 1869 3392 
Q 2515 3392 2880 2979 
Q 3245 2566 3245 1709 
Q 3245 1683 3245 1632 
Q 3245 1581 3245 1536 
L 806 1536 
Q 858 966 1174 675 
Q 1491 384 2074 384 
Q 2400 384 2617 435 
Q 2835 486 2931 531 
L 3002 109 
Q 2925 51 2640 -13 
Q 2355 -77 1997 -77 
z
M 826 1978 
L 2714 1978 
Q 2714 2291 2602 2508 
Q 2490 2726 2298 2844 
Q 2106 2963 1856 2963 
Q 1568 2963 1347 2819 
Q 1126 2675 992 2448 
Q 858 2221 826 1978 
z
" transform="scale(0.015625)"/>
        <path id="UbuntuMono-Regular-4a" d="M 1517 -1203 
Q 1203 -1203 944 -1155 
Q 685 -1107 512 -1043 
L 595 -595 
Q 781 -672 1021 -717 
Q 1261 -762 1530 -762 
Q 1882 -762 2109 -669 
Q 2336 -576 2445 -368 
Q 2554 -160 2554 179 
L 2554 288 
Q 2477 243 2249 166 
Q 2022 90 1722 90 
Q 1350 90 1024 259 
Q 698 429 499 790 
Q 301 1152 301 1715 
Q 301 2176 473 2557 
Q 646 2938 982 3165 
Q 1318 3392 1798 3392 
Q 2259 3392 2572 3328 
Q 2886 3264 3053 3213 
L 3053 211 
Q 3053 -544 2665 -873 
Q 2278 -1203 1517 -1203 
z
M 1734 557 
Q 1978 557 2202 627 
Q 2426 698 2554 794 
L 2554 2835 
Q 2470 2867 2294 2896 
Q 2118 2925 1818 2925 
Q 1344 2925 1085 2585 
Q 826 2246 826 1709 
Q 826 1299 960 1043 
Q 1094 787 1302 672 
Q 1510 557 1734 557 
z
" transform="scale(0.015625)"/>
        <path id="UbuntuMono-Regular-47" d="M 1901 -77 
Q 1440 -77 1081 134 
Q 723 346 518 736 
Q 314 1126 314 1664 
Q 314 2170 493 2557 
Q 672 2944 998 3168 
Q 1325 3392 1766 3392 
Q 2054 3392 2262 3321 
Q 2470 3251 2566 3181 
L 2566 4877 
L 3066 4966 
L 3066 96 
Q 2893 45 2605 -16 
Q 2317 -77 1901 -77 
z
M 1894 390 
Q 2150 390 2326 412 
Q 2502 435 2566 461 
L 2566 2650 
Q 2464 2752 2253 2845 
Q 2042 2938 1811 2938 
Q 1466 2938 1251 2765 
Q 1037 2592 937 2301 
Q 838 2010 838 1651 
Q 838 1030 1142 710 
Q 1446 390 1894 390 
z
" transform="scale(0.015625)"/>
       </defs>
       <use xlink:href="#UbuntuMono-Regular-53"/>
       <use xlink:href="#UbuntuMono-Regular-55" transform="translate(56 0)"/>
       <use xlink:href="#UbuntuMono-Regular-4c" transform="translate(112 0)"/>
       <use xlink:href="#UbuntuMono-Regular-59" transform="translate(168 0)"/>
       <use xlink:href="#UbuntuMono-Regular-4c" transform="translate(224 0)"/>
       <use xlink:href="#UbuntuMono-Regular-4f" transform="translate(280 0)"/>
       <use xlink:href="#UbuntuMono-Regular-48" transform="translate(336 0)"/>
       <use xlink:href="#UbuntuMono-Regular-4a" transform="translate(392 0)"/>
       <use xlink:href="#UbuntuMono-Regular-48" transform="translate(448 0)"/>
       <use xlink:href="#UbuntuMono-Regular-47" transform="translate(504 0)"/>
      </g>
      <!-- information -->
      <g style="fill: #ebebec" transform="translate(102.179559 232.11) scale(0.1 -0.1)">
       <defs>
        <path id="UbuntuMono-Regular-51" d="M 531 0 
L 531 3226 
Q 870 3315 1184 3350 
Q 1498 3386 1734 3386 
Q 2150 3386 2451 3248 
Q 2752 3110 2915 2800 
Q 3078 2490 3078 1965 
L 3078 0 
L 2579 0 
L 2579 1862 
Q 2579 2323 2464 2550 
Q 2349 2778 2153 2854 
Q 1958 2931 1715 2931 
Q 1555 2931 1376 2912 
Q 1197 2893 1030 2861 
L 1030 0 
L 531 0 
z
" transform="scale(0.015625)"/>
        <path id="UbuntuMono-Regular-49" d="M 1197 0 
L 1197 2886 
L 512 2886 
L 512 3315 
L 1197 3315 
L 1197 3648 
Q 1197 4154 1373 4438 
Q 1549 4723 1837 4844 
Q 2125 4966 2451 4966 
Q 2707 4966 2960 4908 
Q 3213 4851 3437 4781 
L 3341 4333 
Q 3187 4422 2950 4476 
Q 2714 4531 2464 4531 
Q 2259 4531 2083 4451 
Q 1907 4371 1801 4179 
Q 1696 3987 1696 3648 
L 1696 3315 
L 3027 3315 
L 3027 2886 
L 1696 2886 
L 1696 0 
L 1197 0 
z
" transform="scale(0.015625)"/>
        <path id="UbuntuMono-Regular-52" d="M 1779 -70 
Q 1357 -70 1027 144 
Q 698 358 506 745 
Q 314 1133 314 1658 
Q 314 2182 502 2569 
Q 691 2957 1024 3174 
Q 1357 3392 1779 3392 
Q 2214 3392 2550 3174 
Q 2886 2957 3078 2569 
Q 3270 2182 3270 1658 
Q 3270 1133 3078 745 
Q 2886 358 2550 144 
Q 2214 -70 1779 -70 
z
M 1786 390 
Q 2221 390 2486 726 
Q 2752 1062 2752 1658 
Q 2752 2253 2483 2595 
Q 2214 2938 1779 2938 
Q 1357 2938 1094 2595 
Q 832 2253 832 1658 
Q 832 1062 1101 726 
Q 1370 390 1786 390 
z
" transform="scale(0.015625)"/>
        <path id="UbuntuMono-Regular-50" d="M 320 0 
L 320 3232 
Q 512 3315 694 3356 
Q 877 3398 1056 3398 
Q 1280 3398 1472 3334 
Q 1664 3270 1798 3130 
Q 1965 3264 2131 3331 
Q 2298 3398 2464 3398 
Q 2650 3398 2845 3296 
Q 3040 3194 3177 2989 
Q 3315 2784 3315 2477 
L 3315 0 
L 2829 0 
L 2829 2477 
Q 2829 2624 2774 2739 
Q 2720 2854 2621 2918 
Q 2522 2982 2394 2982 
Q 2304 2982 2205 2928 
Q 2106 2874 2016 2765 
Q 2042 2701 2051 2630 
Q 2061 2560 2061 2490 
L 2061 1280 
L 1574 1280 
L 1574 2470 
Q 1574 2694 1488 2838 
Q 1402 2982 1152 2982 
Q 1082 2982 995 2963 
Q 909 2944 806 2912 
L 806 0 
L 320 0 
z
" transform="scale(0.015625)"/>
        <path id="UbuntuMono-Regular-44" d="M 1882 -77 
Q 1626 -77 1373 -35 
Q 1120 6 912 121 
Q 704 237 576 445 
Q 448 653 448 979 
Q 448 1357 659 1581 
Q 870 1805 1196 1904 
Q 1523 2003 1869 2003 
Q 2054 2003 2230 1980 
Q 2406 1958 2573 1920 
L 2573 2099 
Q 2573 2310 2512 2508 
Q 2451 2707 2275 2835 
Q 2099 2963 1754 2963 
Q 1434 2963 1200 2915 
Q 966 2867 858 2822 
L 800 3251 
Q 909 3302 1184 3347 
Q 1459 3392 1786 3392 
Q 2272 3392 2553 3232 
Q 2835 3072 2956 2793 
Q 3078 2515 3078 2150 
L 3078 51 
Q 2861 13 2534 -32 
Q 2208 -77 1882 -77 
z
M 1843 358 
Q 2086 358 2275 377 
Q 2464 397 2573 422 
L 2573 1472 
Q 2458 1510 2282 1539 
Q 2106 1568 1907 1568 
Q 1683 1568 1465 1517 
Q 1248 1466 1107 1338 
Q 966 1210 966 979 
Q 966 627 1200 492 
Q 1434 358 1843 358 
z
" transform="scale(0.015625)"/>
        <path id="UbuntuMono-Regular-57" d="M 2387 -77 
Q 1869 -77 1613 92 
Q 1357 262 1273 569 
Q 1190 877 1190 1286 
L 1190 2886 
L 512 2886 
L 512 3315 
L 1190 3315 
L 1190 4269 
L 1690 4358 
L 1690 3315 
L 3098 3315 
L 3098 2886 
L 1690 2886 
L 1690 1280 
Q 1690 928 1760 733 
Q 1830 538 1993 461 
Q 2157 384 2432 384 
Q 2688 384 2838 432 
Q 2989 480 3104 531 
L 3181 109 
Q 3130 83 2925 3 
Q 2720 -77 2387 -77 
z
" transform="scale(0.015625)"/>
       </defs>
       <use xlink:href="#UbuntuMono-Regular-4c"/>
       <use xlink:href="#UbuntuMono-Regular-51" transform="translate(56 0)"/>
       <use xlink:href="#UbuntuMono-Regular-49" transform="translate(112 0)"/>
       <use xlink:href="#UbuntuMono-Regular-52" transform="translate(168 0)"/>
       <use xlink:href="#UbuntuMono-Regular-55" transform="translate(224 0)"/>
       <use xlink:href="#UbuntuMono-Regular-50" transform="translate(280 0)"/>
       <use xlink:href="#UbuntuMono-Regular-44" transform="translate(336 0)"/>
       <use xlink:href="#UbuntuMono-Regular-57" transform="translate(392 0)"/>
       <use xlink:href="#UbuntuMono-Regular-4c" transform="translate(448 0)"/>
       <use xlink:href="#UbuntuMono-Regular-52" transform="translate(504 0)"/>
       <use xlink:href="#UbuntuMono-Regular-51" transform="translate(560 0)"/>
      </g>
     </g>
    </g>
    <g id="xtick_2">
     <g id="line2d_2"/>
     <g id="text_2">
      <!-- stochastic -->
      <g style="fill: #ebebec" transform="translate(264.845 220.9) scale(0.1 -0.1)">
       <defs>
        <path id="UbuntuMono-Regular-56" d="M 1658 -77 
Q 1344 -77 1062 -29 
Q 781 19 499 141 
L 608 614 
Q 858 493 1136 422 
Q 1414 352 1734 352 
Q 2157 352 2368 464 
Q 2579 576 2579 813 
Q 2579 986 2448 1104 
Q 2317 1222 2109 1312 
Q 1901 1402 1664 1478 
Q 1466 1549 1267 1635 
Q 1069 1722 909 1834 
Q 749 1946 653 2106 
Q 557 2266 557 2483 
Q 557 2746 701 2950 
Q 845 3155 1139 3273 
Q 1434 3392 1882 3392 
Q 2144 3392 2432 3353 
Q 2720 3315 2918 3264 
L 2829 2797 
Q 2752 2848 2595 2883 
Q 2438 2918 2252 2940 
Q 2067 2963 1888 2963 
Q 1478 2963 1264 2854 
Q 1050 2746 1050 2490 
Q 1050 2355 1158 2256 
Q 1267 2157 1446 2083 
Q 1626 2010 1837 1933 
Q 2054 1850 2275 1757 
Q 2496 1664 2681 1542 
Q 2867 1421 2979 1251 
Q 3091 1082 3091 851 
Q 3091 544 2934 336 
Q 2778 128 2461 25 
Q 2144 -77 1658 -77 
z
" transform="scale(0.015625)"/>
        <path id="UbuntuMono-Regular-46" d="M 2131 -77 
Q 1645 -77 1245 108 
Q 845 294 605 675 
Q 365 1056 365 1651 
Q 365 2125 515 2457 
Q 666 2790 925 2995 
Q 1184 3200 1507 3296 
Q 1830 3392 2170 3392 
Q 2394 3392 2634 3360 
Q 2874 3328 3149 3245 
L 3034 2803 
Q 2771 2899 2566 2918 
Q 2362 2938 2182 2938 
Q 1862 2938 1564 2816 
Q 1267 2694 1075 2416 
Q 883 2138 883 1651 
Q 883 1197 1062 918 
Q 1242 640 1542 512 
Q 1843 384 2208 384 
Q 2445 384 2653 406 
Q 2861 429 3130 525 
L 3200 102 
Q 2938 0 2678 -38 
Q 2419 -77 2131 -77 
z
" transform="scale(0.015625)"/>
        <path id="UbuntuMono-Regular-4b" d="M 531 0 
L 531 4877 
L 1030 4966 
L 1030 3258 
Q 1197 3322 1382 3354 
Q 1568 3386 1754 3386 
Q 2266 3386 2554 3197 
Q 2842 3008 2960 2665 
Q 3078 2323 3078 1869 
L 3078 0 
L 2579 0 
L 2579 1734 
Q 2579 2182 2499 2441 
Q 2419 2701 2230 2816 
Q 2042 2931 1709 2931 
Q 1510 2931 1312 2886 
Q 1114 2842 1030 2810 
L 1030 0 
L 531 0 
z
" transform="scale(0.015625)"/>
       </defs>
       <use xlink:href="#UbuntuMono-Regular-56"/>
       <use xlink:href="#UbuntuMono-Regular-57" transform="translate(56 0)"/>
       <use xlink:href="#UbuntuMono-Regular-52" transform="translate(112 0)"/>
       <use xlink:href="#UbuntuMono-Regular-46" transform="translate(168 0)"/>
       <use xlink:href="#UbuntuMono-Regular-4b" transform="translate(224 0)"/>
       <use xlink:href="#UbuntuMono-Regular-44" transform="translate(280 0)"/>
       <use xlink:href="#UbuntuMono-Regular-56" transform="translate(336 0)"/>
       <use xlink:href="#UbuntuMono-Regular-57" transform="translate(392 0)"/>
       <use xlink:href="#UbuntuMono-Regular-4c" transform="translate(448 0)"/>
       <use xlink:href="#UbuntuMono-Regular-46" transform="translate(504 0)"/>
      </g>
      <!-- expert -->
      <g style="fill: #ebebec" transform="translate(276.045 232.11) scale(0.1 -0.1)">
       <defs>
        <path id="UbuntuMono-Regular-5b" d="M 224 0 
Q 390 294 601 595 
Q 813 896 1043 1187 
Q 1274 1478 1491 1754 
L 288 3315 
L 877 3315 
L 1818 2118 
L 2682 3315 
L 3238 3315 
L 2131 1798 
Q 2349 1517 2566 1222 
Q 2784 928 2992 621 
Q 3200 314 3366 0 
L 2784 0 
Q 2701 179 2541 425 
Q 2381 672 2189 937 
Q 1997 1203 1811 1427 
Q 1626 1210 1418 941 
Q 1210 672 1030 422 
Q 851 173 755 0 
L 224 0 
z
" transform="scale(0.015625)"/>
       </defs>
       <use xlink:href="#UbuntuMono-Regular-48"/>
       <use xlink:href="#UbuntuMono-Regular-5b" transform="translate(56 0)"/>
       <use xlink:href="#UbuntuMono-Regular-53" transform="translate(112 0)"/>
       <use xlink:href="#UbuntuMono-Regular-48" transform="translate(168 0)"/>
       <use xlink:href="#UbuntuMono-Regular-55" transform="translate(224 0)"/>
       <use xlink:href="#UbuntuMono-Regular-57" transform="translate(280 0)"/>
      </g>
     </g>
    </g>
    <g id="xtick_3">
     <g id="line2d_3"/>
     <g id="text_3">
      <!-- limited capacity -->
      <g style="fill: #ebebec" transform="translate(407.910441 220.9) scale(0.1 -0.1)">
       <defs>
        <path id="UbuntuMono-Regular-3" transform="scale(0.015625)"/>
        <path id="UbuntuMono-Regular-5c" d="M 749 -1203 
Q 646 -1203 489 -1168 
Q 333 -1133 288 -1107 
L 384 -704 
Q 429 -730 547 -755 
Q 666 -781 762 -781 
Q 1139 -781 1347 -630 
Q 1555 -480 1741 -96 
Q 1312 704 953 1593 
Q 595 2483 371 3315 
L 934 3315 
Q 1030 2931 1177 2454 
Q 1325 1978 1520 1475 
Q 1715 973 1939 512 
Q 2118 992 2246 1424 
Q 2374 1856 2492 2313 
Q 2611 2771 2752 3315 
L 3277 3315 
Q 3059 2394 2771 1510 
Q 2483 627 2176 -102 
Q 2016 -486 1817 -729 
Q 1619 -973 1360 -1088 
Q 1101 -1203 749 -1203 
z
" transform="scale(0.015625)"/>
       </defs>
       <use xlink:href="#UbuntuMono-Regular-4f"/>
       <use xlink:href="#UbuntuMono-Regular-4c" transform="translate(56 0)"/>
       <use xlink:href="#UbuntuMono-Regular-50" transform="translate(112 0)"/>
       <use xlink:href="#UbuntuMono-Regular-4c" transform="translate(168 0)"/>
       <use xlink:href="#UbuntuMono-Regular-57" transform="translate(224 0)"/>
       <use xlink:href="#UbuntuMono-Regular-48" transform="translate(280 0)"/>
       <use xlink:href="#UbuntuMono-Regular-47" transform="translate(336 0)"/>
       <use xlink:href="#UbuntuMono-Regular-3" transform="translate(392 0)"/>
       <use xlink:href="#UbuntuMono-Regular-46" transform="translate(448 0)"/>
       <use xlink:href="#UbuntuMono-Regular-44" transform="translate(504 0)"/>
       <use xlink:href="#UbuntuMono-Regular-53" transform="translate(560 0)"/>
       <use xlink:href="#UbuntuMono-Regular-44" transform="translate(616 0)"/>
       <use xlink:href="#UbuntuMono-Regular-46" transform="translate(672 0)"/>
       <use xlink:href="#UbuntuMono-Regular-4c" transform="translate(728 0)"/>
       <use xlink:href="#UbuntuMono-Regular-57" transform="translate(784 0)"/>
       <use xlink:href="#UbuntuMono-Regular-5c" transform="translate(840 0)"/>
      </g>
      <!-- (student degree 1) -->
      <g style="fill: #ebebec" transform="translate(402.310441 232.11) scale(0.1 -0.1)">
       <defs>
        <path id="UbuntuMono-Regular-b" d="M 2413 -1190 
Q 1638 -570 1248 246 
Q 858 1062 858 1926 
Q 858 2784 1248 3593 
Q 1638 4403 2406 5005 
L 2682 4608 
Q 2022 4070 1686 3388 
Q 1350 2707 1350 1939 
Q 1350 1427 1488 972 
Q 1626 518 1926 89 
Q 2227 -339 2707 -794 
L 2413 -1190 
z
" transform="scale(0.015625)"/>
        <path id="UbuntuMono-Regular-58" d="M 1818 -70 
Q 1338 -70 1050 122 
Q 762 314 634 656 
Q 506 998 506 1440 
L 506 3315 
L 1005 3315 
L 1005 1581 
Q 1005 922 1209 653 
Q 1414 384 1875 384 
Q 2099 384 2304 409 
Q 2509 435 2554 454 
L 2554 3315 
L 3053 3315 
L 3053 90 
Q 2874 45 2563 -12 
Q 2253 -70 1818 -70 
z
" transform="scale(0.015625)"/>
        <path id="UbuntuMono-Regular-14" d="M 806 0 
L 806 429 
L 1773 429 
L 1773 3731 
Q 1632 3590 1341 3430 
Q 1050 3270 749 3162 
L 595 3520 
Q 845 3616 1069 3741 
Q 1293 3866 1504 4035 
Q 1715 4205 1914 4435 
L 2272 4435 
L 2272 429 
L 3098 429 
L 3098 0 
L 806 0 
z
" transform="scale(0.015625)"/>
        <path id="UbuntuMono-Regular-c" d="M 1158 -1190 
L 870 -794 
Q 1536 -243 1885 441 
Q 2234 1126 2234 1888 
Q 2234 2406 2096 2854 
Q 1958 3302 1660 3731 
Q 1363 4160 877 4608 
L 1165 5005 
Q 1946 4384 2333 3574 
Q 2720 2765 2720 1907 
Q 2720 1050 2323 234 
Q 1926 -582 1158 -1190 
z
" transform="scale(0.015625)"/>
       </defs>
       <use xlink:href="#UbuntuMono-Regular-b"/>
       <use xlink:href="#UbuntuMono-Regular-56" transform="translate(56 0)"/>
       <use xlink:href="#UbuntuMono-Regular-57" transform="translate(112 0)"/>
       <use xlink:href="#UbuntuMono-Regular-58" transform="translate(168 0)"/>
       <use xlink:href="#UbuntuMono-Regular-47" transform="translate(224 0)"/>
       <use xlink:href="#UbuntuMono-Regular-48" transform="translate(280 0)"/>
       <use xlink:href="#UbuntuMono-Regular-51" transform="translate(336 0)"/>
       <use xlink:href="#UbuntuMono-Regular-57" transform="translate(392 0)"/>
       <use xlink:href="#UbuntuMono-Regular-3" transform="translate(448 0)"/>
       <use xlink:href="#UbuntuMono-Regular-47" transform="translate(504 0)"/>
       <use xlink:href="#UbuntuMono-Regular-48" transform="translate(560 0)"/>
       <use xlink:href="#UbuntuMono-Regular-4a" transform="translate(616 0)"/>
       <use xlink:href="#UbuntuMono-Regular-55" transform="translate(672 0)"/>
       <use xlink:href="#UbuntuMono-Regular-48" transform="translate(728 0)"/>
       <use xlink:href="#UbuntuMono-Regular-48" transform="translate(784 0)"/>
       <use xlink:href="#UbuntuMono-Regular-3" transform="translate(840 0)"/>
       <use xlink:href="#UbuntuMono-Regular-14" transform="translate(896 0)"/>
       <use xlink:href="#UbuntuMono-Regular-c" transform="translate(952 0)"/>
      </g>
     </g>
    </g>
   </g>
   <g id="matplotlib.axis_2">
    <g id="ytick_1">
     <g id="line2d_4">
      <path d="M 49.29 205.58 
L 536.4 205.58 
" clip-path="url(#p306ad4a6e6)" style="fill: none; stroke: #393639; stroke-width: 0.6; stroke-linecap: square"/>
     </g>
     <g id="line2d_5"/>
     <g id="text_4">
      <!-- 0 -->
      <g style="fill: #c3c2b7" transform="translate(37.69 210.24) scale(0.1 -0.1)">
       <defs>
        <path id="UbuntuMono-Regular-13" d="M 1792 -96 
Q 1120 -96 739 512 
Q 358 1120 358 2221 
Q 358 3322 736 3930 
Q 1114 4538 1792 4538 
Q 2477 4538 2851 3930 
Q 3226 3322 3226 2221 
Q 3226 1120 2851 512 
Q 2477 -96 1792 -96 
z
M 1792 358 
Q 2054 358 2227 512 
Q 2400 666 2499 928 
Q 2598 1190 2640 1526 
Q 2682 1862 2682 2221 
Q 2682 2586 2640 2918 
Q 2598 3251 2499 3513 
Q 2400 3776 2227 3929 
Q 2054 4083 1792 4083 
Q 1530 4083 1357 3929 
Q 1184 3776 1085 3513 
Q 986 3251 944 2918 
Q 902 2586 902 2221 
Q 902 1862 944 1526 
Q 986 1190 1085 928 
Q 1184 666 1357 512 
Q 1530 358 1792 358 
z
M 1805 1850 
Q 1626 1850 1507 1987 
Q 1389 2125 1389 2304 
Q 1389 2483 1507 2624 
Q 1626 2765 1805 2765 
Q 1990 2765 2102 2624 
Q 2214 2483 2214 2304 
Q 2214 2125 2102 1987 
Q 1990 1850 1805 1850 
z
" transform="scale(0.015625)"/>
       </defs>
       <use xlink:href="#UbuntuMono-Regular-13"/>
      </g>
     </g>
    </g>
    <g id="ytick_2">
     <g id="line2d_6">
      <path d="M 49.29 168.098966 
L 536.4 168.098966 
" clip-path="url(#p306ad4a6e6)" style="fill: none; stroke: #393639; stroke-width: 0.6; stroke-linecap: square"/>
     </g>
     <g id="line2d_7"/>
     <g id="text_5">
      <!-- 25 -->
      <g style="fill: #c3c2b7" transform="translate(32.09 172.758966) scale(0.1 -0.1)">
       <defs>
        <path id="UbuntuMono-Regular-15" d="M 525 0 
Q 525 32 521 48 
Q 518 64 518 102 
Q 518 499 684 825 
Q 851 1152 1110 1433 
Q 1370 1715 1632 1978 
Q 1850 2195 2038 2403 
Q 2227 2611 2345 2832 
Q 2464 3053 2464 3309 
Q 2464 3725 2227 3904 
Q 1990 4083 1658 4083 
Q 1376 4083 1171 3987 
Q 966 3891 848 3792 
Q 730 3693 691 3667 
L 442 4026 
Q 486 4083 643 4208 
Q 800 4333 1053 4435 
Q 1306 4538 1632 4538 
Q 2125 4538 2419 4394 
Q 2714 4250 2845 3978 
Q 2976 3706 2976 3315 
Q 2976 3014 2825 2726 
Q 2675 2438 2435 2163 
Q 2195 1888 1933 1619 
Q 1818 1504 1667 1344 
Q 1517 1184 1382 1014 
Q 1248 845 1158 691 
Q 1069 538 1069 429 
L 3149 429 
L 3149 0 
L 525 0 
z
" transform="scale(0.015625)"/>
        <path id="UbuntuMono-Regular-18" d="M 1594 -96 
Q 1376 -96 1155 -51 
Q 934 -6 771 48 
Q 608 102 544 134 
L 640 582 
Q 736 538 979 448 
Q 1222 358 1581 358 
Q 1971 358 2204 473 
Q 2438 589 2540 781 
Q 2643 973 2643 1203 
Q 2643 1466 2553 1667 
Q 2464 1869 2256 2003 
Q 2048 2138 1686 2208 
Q 1325 2278 787 2278 
Q 845 2707 873 3049 
Q 902 3392 918 3721 
Q 934 4051 947 4435 
L 3046 4435 
L 3046 4006 
L 1402 4006 
Q 1395 3917 1382 3741 
Q 1370 3565 1357 3363 
Q 1344 3162 1328 2982 
Q 1312 2803 1299 2701 
Q 2291 2669 2723 2281 
Q 3155 1894 3155 1235 
Q 3155 851 2995 550 
Q 2835 250 2492 77 
Q 2150 -96 1594 -96 
z
" transform="scale(0.015625)"/>
       </defs>
       <use xlink:href="#UbuntuMono-Regular-15"/>
       <use xlink:href="#UbuntuMono-Regular-18" transform="translate(56 0)"/>
      </g>
     </g>
    </g>
    <g id="ytick_3">
     <g id="line2d_8">
      <path d="M 49.29 130.617932 
L 536.4 130.617932 
" clip-path="url(#p306ad4a6e6)" style="fill: none; stroke: #393639; stroke-width: 0.6; stroke-linecap: square"/>
     </g>
     <g id="line2d_9"/>
     <g id="text_6">
      <!-- 50 -->
      <g style="fill: #c3c2b7" transform="translate(32.09 135.277932) scale(0.1 -0.1)">
       <use xlink:href="#UbuntuMono-Regular-18"/>
       <use xlink:href="#UbuntuMono-Regular-13" transform="translate(56 0)"/>
      </g>
     </g>
    </g>
    <g id="ytick_4">
     <g id="line2d_10">
      <path d="M 49.29 93.136898 
L 536.4 93.136898 
" clip-path="url(#p306ad4a6e6)" style="fill: none; stroke: #393639; stroke-width: 0.6; stroke-linecap: square"/>
     </g>
     <g id="line2d_11"/>
     <g id="text_7">
      <!-- 75 -->
      <g style="fill: #c3c2b7" transform="translate(32.09 97.796898) scale(0.1 -0.1)">
       <defs>
        <path id="UbuntuMono-Regular-1a" d="M 1165 0 
Q 1203 531 1353 1110 
Q 1504 1690 1725 2243 
Q 1946 2797 2205 3251 
Q 2464 3706 2720 3987 
L 486 3987 
L 486 4435 
L 3270 4435 
L 3270 3994 
Q 3046 3738 2790 3312 
Q 2534 2886 2297 2345 
Q 2061 1805 1894 1203 
Q 1728 602 1683 0 
L 1165 0 
z
" transform="scale(0.015625)"/>
       </defs>
       <use xlink:href="#UbuntuMono-Regular-1a"/>
       <use xlink:href="#UbuntuMono-Regular-18" transform="translate(56 0)"/>
      </g>
     </g>
    </g>
    <g id="ytick_5">
     <g id="line2d_12">
      <path d="M 49.29 55.655864 
L 536.4 55.655864 
" clip-path="url(#p306ad4a6e6)" style="fill: none; stroke: #393639; stroke-width: 0.6; stroke-linecap: square"/>
     </g>
     <g id="line2d_13"/>
     <g id="text_8">
      <!-- 100 -->
      <g style="fill: #c3c2b7" transform="translate(26.49 60.315864) scale(0.1 -0.1)">
       <use xlink:href="#UbuntuMono-Regular-14"/>
       <use xlink:href="#UbuntuMono-Regular-13" transform="translate(56 0)"/>
       <use xlink:href="#UbuntuMono-Regular-13" transform="translate(112 0)"/>
      </g>
     </g>
    </g>
    <g id="text_9">
     <!-- task success (%) -->
     <g style="fill: #c3c2b7" transform="translate(20.6 161.92476) rotate(-90) scale(0.1 -0.1)">
      <defs>
       <path id="UbuntuMono-Regular-4e" d="M 531 0 
L 531 4877 
L 1030 4966 
L 1030 1901 
Q 1325 2144 1619 2368 
Q 1914 2592 2189 2825 
Q 2464 3059 2694 3315 
L 3277 3315 
Q 3066 3066 2787 2813 
Q 2509 2560 2208 2310 
Q 1907 2061 1606 1811 
Q 1798 1677 2048 1465 
Q 2298 1254 2560 1001 
Q 2822 749 3046 489 
Q 3270 230 3405 0 
L 2797 0 
Q 2650 237 2432 470 
Q 2214 704 1961 918 
Q 1709 1133 1465 1309 
Q 1222 1485 1030 1600 
L 1030 0 
L 531 0 
z
" transform="scale(0.015625)"/>
       <path id="UbuntuMono-Regular-8" d="M 230 0 
L 2880 4435 
L 3347 4435 
L 685 0 
L 230 0 
z
M 2669 -96 
Q 2310 -96 2105 189 
Q 1901 474 1901 1018 
Q 1901 1562 2105 1846 
Q 2310 2131 2669 2131 
Q 3027 2131 3232 1846 
Q 3437 1562 3437 1018 
Q 3437 474 3232 189 
Q 3027 -96 2669 -96 
z
M 2669 224 
Q 2854 224 2950 461 
Q 3046 698 3046 1018 
Q 3046 1338 2950 1571 
Q 2854 1805 2669 1805 
Q 2490 1805 2394 1571 
Q 2298 1338 2298 1018 
Q 2298 698 2394 461 
Q 2490 224 2669 224 
z
M 922 2304 
Q 557 2304 352 2589 
Q 147 2874 147 3418 
Q 147 3962 352 4246 
Q 557 4531 922 4531 
Q 1280 4531 1485 4246 
Q 1690 3962 1690 3418 
Q 1690 2874 1485 2589 
Q 1280 2304 922 2304 
z
M 922 2624 
Q 1107 2624 1200 2861 
Q 1293 3098 1293 3418 
Q 1293 3738 1200 3974 
Q 1107 4211 922 4211 
Q 742 4211 640 3974 
Q 538 3738 538 3418 
Q 538 3098 640 2861 
Q 742 2624 922 2624 
z
" transform="scale(0.015625)"/>
      </defs>
      <use xlink:href="#UbuntuMono-Regular-57"/>
      <use xlink:href="#UbuntuMono-Regular-44" transform="translate(56 0)"/>
      <use xlink:href="#UbuntuMono-Regular-56" transform="translate(112 0)"/>
      <use xlink:href="#UbuntuMono-Regular-4e" transform="translate(168 0)"/>
      <use xlink:href="#UbuntuMono-Regular-3" transform="translate(224 0)"/>
      <use xlink:href="#UbuntuMono-Regular-56" transform="translate(280 0)"/>
      <use xlink:href="#UbuntuMono-Regular-58" transform="translate(336 0)"/>
      <use xlink:href="#UbuntuMono-Regular-46" transform="translate(392 0)"/>
      <use xlink:href="#UbuntuMono-Regular-46" transform="translate(448 0)"/>
      <use xlink:href="#UbuntuMono-Regular-48" transform="translate(504 0)"/>
      <use xlink:href="#UbuntuMono-Regular-56" transform="translate(560 0)"/>
      <use xlink:href="#UbuntuMono-Regular-56" transform="translate(616 0)"/>
      <use xlink:href="#UbuntuMono-Regular-3" transform="translate(672 0)"/>
      <use xlink:href="#UbuntuMono-Regular-b" transform="translate(728 0)"/>
      <use xlink:href="#UbuntuMono-Regular-8" transform="translate(784 0)"/>
      <use xlink:href="#UbuntuMono-Regular-c" transform="translate(840 0)"/>
     </g>
    </g>
   </g>
   <g id="patch_3">
    <path d="M 71.431364 205.58 
L 98.608489 205.58 
L 98.608489 123.808878 
L 71.431364 123.808878 
z
" clip-path="url(#p306ad4a6e6)" style="fill: #3987e5"/>
   </g>
   <g id="patch_4">
    <path d="M 231.296805 205.58 
L 258.47393 205.58 
L 258.47393 91.758096 
L 231.296805 91.758096 
z
" clip-path="url(#p306ad4a6e6)" style="fill: #3987e5"/>
   </g>
   <g id="patch_5">
    <path d="M 391.162246 205.58 
L 418.339372 205.58 
L 418.339372 180.101643 
L 391.162246 180.101643 
z
" clip-path="url(#p306ad4a6e6)" style="fill: #3987e5"/>
   </g>
   <g id="patch_6">
    <path d="M 103.404452 205.58 
L 130.581577 205.58 
L 130.581577 99.387236 
L 103.404452 99.387236 
z
" clip-path="url(#p306ad4a6e6)" style="fill: url(#h33c3718276); stroke: #3987e5; stroke-width: 1.2; stroke-linejoin: miter"/>
   </g>
   <g id="patch_7">
    <path d="M 263.269893 205.58 
L 290.447018 205.58 
L 290.447018 67.693273 
L 263.269893 67.693273 
z
" clip-path="url(#p306ad4a6e6)" style="fill: url(#h33c3718276); stroke: #3987e5; stroke-width: 1.2; stroke-linejoin: miter"/>
   </g>
   <g id="patch_8">
    <path d="M 423.135335 205.58 
L 450.31246 205.58 
L 450.31246 205.58 
L 423.135335 205.58 
z
" clip-path="url(#p306ad4a6e6)" style="fill: url(#h33c3718276); stroke: #3987e5; stroke-width: 1.2; stroke-linejoin: miter"/>
   </g>
   <g id="patch_9">
    <path d="M 135.37754 205.58 
L 162.554665 205.58 
L 162.554665 55.655864 
L 135.37754 55.655864 
z
" clip-path="url(#p306ad4a6e6)" style="fill: url(#hc231ae44f5); stroke: #d95926; stroke-width: 1.2; stroke-linejoin: miter"/>
   </g>
   <g id="patch_10">
    <path d="M 295.242982 205.58 
L 322.420107 205.58 
L 322.420107 55.655864 
L 295.242982 55.655864 
z
" clip-path="url(#p306ad4a6e6)" style="fill: url(#hc231ae44f5); stroke: #d95926; stroke-width: 1.2; stroke-linejoin: miter"/>
   </g>
   <g id="patch_11">
    <path d="M 455.108423 205.58 
L 482.285548 205.58 
L 482.285548 55.655864 
L 455.108423 55.655864 
z
" clip-path="url(#p306ad4a6e6)" style="fill: url(#hc231ae44f5); stroke: #d95926; stroke-width: 1.2; stroke-linejoin: miter"/>
   </g>
   <g id="patch_12">
    <path d="M 167.350628 205.58 
L 194.527754 205.58 
L 194.527754 55.660112 
L 167.350628 55.660112 
z
" clip-path="url(#p306ad4a6e6)" style="fill: #d95926"/>
   </g>
   <g id="patch_13">
    <path d="M 327.21607 205.58 
L 354.393195 205.58 
L 354.393195 55.672856 
L 327.21607 55.672856 
z
" clip-path="url(#p306ad4a6e6)" style="fill: #d95926"/>
   </g>
   <g id="patch_14">
    <path d="M 487.081511 205.58 
L 514.258636 205.58 
L 514.258636 55.657114 
L 487.081511 55.657114 
z
" clip-path="url(#p306ad4a6e6)" style="fill: #d95926"/>
   </g>
   <g id="patch_15">
    <path d="M 49.29 205.58 
L 49.29 28.66952 
" style="fill: none; stroke: #393639; stroke-width: 0.8; stroke-linejoin: miter; stroke-linecap: square"/>
   </g>
   <g id="patch_16">
    <path d="M 49.29 205.58 
L 536.4 205.58 
" style="fill: none; stroke: #393639; stroke-width: 0.8; stroke-linejoin: miter; stroke-linecap: square"/>
   </g>
   <g id="text_10">
    <!-- 55 -->
    <g style="fill: #ebebec" transform="translate(80.259926 119.202378) scale(0.085 -0.085)">
     <use xlink:href="#UbuntuMono-Regular-18"/>
     <use xlink:href="#UbuntuMono-Regular-18" transform="translate(56 0)"/>
    </g>
   </g>
   <g id="text_11">
    <!-- 76 -->
    <g style="fill: #ebebec" transform="translate(240.125368 87.151596) scale(0.085 -0.085)">
     <defs>
      <path id="UbuntuMono-Regular-19" d="M 1856 -96 
Q 1133 -96 765 413 
Q 397 922 397 1773 
Q 397 2637 697 3229 
Q 998 3821 1555 4134 
Q 2112 4448 2886 4461 
L 2938 4026 
Q 2400 4019 1997 3868 
Q 1594 3718 1338 3388 
Q 1082 3059 966 2496 
Q 1146 2573 1376 2633 
Q 1606 2694 1869 2694 
Q 2368 2694 2662 2499 
Q 2957 2304 3081 1993 
Q 3206 1683 3206 1331 
Q 3206 1094 3129 844 
Q 3053 595 2886 380 
Q 2720 166 2467 35 
Q 2214 -96 1856 -96 
z
M 1856 326 
Q 2163 326 2342 486 
Q 2522 646 2602 876 
Q 2682 1107 2682 1318 
Q 2682 1786 2467 2029 
Q 2253 2272 1818 2272 
Q 1568 2272 1363 2224 
Q 1158 2176 934 2086 
Q 928 2016 928 1939 
Q 928 1862 928 1792 
Q 928 1395 1008 1059 
Q 1088 723 1289 524 
Q 1491 326 1856 326 
z
" transform="scale(0.015625)"/>
     </defs>
     <use xlink:href="#UbuntuMono-Regular-1a"/>
     <use xlink:href="#UbuntuMono-Regular-19" transform="translate(56 0)"/>
    </g>
   </g>
   <g id="text_12">
    <!-- 17 -->
    <g style="fill: #ebebec" transform="translate(399.990809 175.495143) scale(0.085 -0.085)">
     <use xlink:href="#UbuntuMono-Regular-14"/>
     <use xlink:href="#UbuntuMono-Regular-1a" transform="translate(56 0)"/>
    </g>
   </g>
   <g id="text_13">
    <!-- 71 -->
    <g style="fill: #ebebec" transform="translate(112.233014 94.780736) scale(0.085 -0.085)">
     <use xlink:href="#UbuntuMono-Regular-1a"/>
     <use xlink:href="#UbuntuMono-Regular-14" transform="translate(56 0)"/>
    </g>
   </g>
   <g id="text_14">
    <!-- 92 -->
    <g style="fill: #ebebec" transform="translate(272.098456 63.086773) scale(0.085 -0.085)">
     <defs>
      <path id="UbuntuMono-Regular-1c" d="M 614 -13 
L 595 410 
Q 1466 403 1971 752 
Q 2477 1101 2618 1958 
Q 2438 1875 2208 1820 
Q 1978 1766 1715 1766 
Q 1216 1766 925 1958 
Q 634 2150 506 2457 
Q 378 2765 378 3117 
Q 378 3354 454 3603 
Q 531 3853 691 4064 
Q 851 4275 1107 4403 
Q 1363 4531 1722 4531 
Q 2451 4531 2819 4035 
Q 3187 3539 3187 2669 
Q 3187 1786 2908 1190 
Q 2630 595 2060 294 
Q 1491 -6 614 -13 
z
M 1760 2182 
Q 2016 2182 2224 2227 
Q 2432 2272 2650 2362 
Q 2662 2438 2662 2499 
Q 2662 2560 2662 2630 
Q 2662 3046 2585 3379 
Q 2509 3712 2307 3910 
Q 2106 4109 1728 4109 
Q 1427 4109 1244 3949 
Q 1062 3789 982 3561 
Q 902 3334 902 3130 
Q 902 2662 1116 2422 
Q 1331 2182 1760 2182 
z
" transform="scale(0.015625)"/>
     </defs>
     <use xlink:href="#UbuntuMono-Regular-1c"/>
     <use xlink:href="#UbuntuMono-Regular-15" transform="translate(56 0)"/>
    </g>
   </g>
   <g id="text_15">
    <!-- 0 -->
    <g style="fill: #ebebec" transform="translate(434.343897 200.9735) scale(0.085 -0.085)">
     <use xlink:href="#UbuntuMono-Regular-13"/>
    </g>
   </g>
   <g id="text_16">
    <!-- 100 -->
    <g style="fill: #ebebec" transform="translate(141.826103 51.049364) scale(0.085 -0.085)">
     <use xlink:href="#UbuntuMono-Regular-14"/>
     <use xlink:href="#UbuntuMono-Regular-13" transform="translate(56 0)"/>
     <use xlink:href="#UbuntuMono-Regular-13" transform="translate(112 0)"/>
    </g>
   </g>
   <g id="text_17">
    <!-- 100 -->
    <g style="fill: #ebebec" transform="translate(301.691544 51.049364) scale(0.085 -0.085)">
     <use xlink:href="#UbuntuMono-Regular-14"/>
     <use xlink:href="#UbuntuMono-Regular-13" transform="translate(56 0)"/>
     <use xlink:href="#UbuntuMono-Regular-13" transform="translate(112 0)"/>
    </g>
   </g>
   <g id="text_18">
    <!-- 100 -->
    <g style="fill: #ebebec" transform="translate(461.556986 51.049364) scale(0.085 -0.085)">
     <use xlink:href="#UbuntuMono-Regular-14"/>
     <use xlink:href="#UbuntuMono-Regular-13" transform="translate(56 0)"/>
     <use xlink:href="#UbuntuMono-Regular-13" transform="translate(112 0)"/>
    </g>
   </g>
   <g id="text_19">
    <!-- 100 -->
    <g style="fill: #ebebec" transform="translate(173.799191 51.053612) scale(0.085 -0.085)">
     <use xlink:href="#UbuntuMono-Regular-14"/>
     <use xlink:href="#UbuntuMono-Regular-13" transform="translate(56 0)"/>
     <use xlink:href="#UbuntuMono-Regular-13" transform="translate(112 0)"/>
    </g>
   </g>
   <g id="text_20">
    <!-- 100 -->
    <g style="fill: #ebebec" transform="translate(333.664632 51.066356) scale(0.085 -0.085)">
     <use xlink:href="#UbuntuMono-Regular-14"/>
     <use xlink:href="#UbuntuMono-Regular-13" transform="translate(56 0)"/>
     <use xlink:href="#UbuntuMono-Regular-13" transform="translate(112 0)"/>
    </g>
   </g>
   <g id="text_21">
    <!-- 100 -->
    <g style="fill: #ebebec" transform="translate(493.530074 51.050614) scale(0.085 -0.085)">
     <use xlink:href="#UbuntuMono-Regular-14"/>
     <use xlink:href="#UbuntuMono-Regular-13" transform="translate(56 0)"/>
     <use xlink:href="#UbuntuMono-Regular-13" transform="translate(112 0)"/>
    </g>
   </g>
   <g id="legend_1">
    <g id="patch_17">
     <path d="M 149.965 24.844262 
L 168.965 24.844262 
L 168.965 18.194262 
L 149.965 18.194262 
z
" style="fill: #3987e5"/>
    </g>
    <g id="text_22">
     <!-- DAgger -->
     <g style="fill: #ebebec" transform="translate(176.565 24.844262) scale(0.095 -0.095)">
      <defs>
       <path id="UbuntuMono-Regular-27" d="M 1267 -32 
Q 1056 -32 832 -3 
Q 608 26 384 77 
L 384 4371 
Q 595 4422 806 4451 
Q 1018 4480 1229 4480 
Q 1805 4480 2265 4259 
Q 2726 4038 2998 3542 
Q 3270 3046 3270 2221 
Q 3270 1402 3008 906 
Q 2746 410 2291 189 
Q 1837 -32 1267 -32 
z
M 1312 403 
Q 1754 403 2077 572 
Q 2400 742 2576 1142 
Q 2752 1542 2752 2221 
Q 2752 2886 2573 3286 
Q 2394 3686 2061 3865 
Q 1728 4045 1254 4045 
Q 1037 4045 883 4026 
L 883 429 
Q 992 416 1104 409 
Q 1216 403 1312 403 
z
" transform="scale(0.015625)"/>
       <path id="UbuntuMono-Regular-24" d="M 64 0 
Q 179 416 326 953 
Q 474 1491 653 2089 
Q 832 2688 1037 3289 
Q 1242 3891 1472 4435 
L 2138 4435 
Q 2362 3891 2560 3289 
Q 2758 2688 2934 2093 
Q 3110 1498 3257 960 
Q 3405 422 3520 0 
L 2989 0 
L 2707 1197 
L 845 1197 
L 570 0 
L 64 0 
z
M 979 1619 
L 2579 1619 
Q 2451 2080 2310 2531 
Q 2170 2982 2032 3369 
Q 1894 3757 1786 4026 
Q 1677 3744 1539 3353 
Q 1402 2963 1258 2518 
Q 1114 2074 979 1619 
z
" transform="scale(0.015625)"/>
      </defs>
      <use xlink:href="#UbuntuMono-Regular-27"/>
      <use xlink:href="#UbuntuMono-Regular-24" transform="translate(56 0)"/>
      <use xlink:href="#UbuntuMono-Regular-4a" transform="translate(112 0)"/>
      <use xlink:href="#UbuntuMono-Regular-4a" transform="translate(168 0)"/>
      <use xlink:href="#UbuntuMono-Regular-48" transform="translate(224 0)"/>
      <use xlink:href="#UbuntuMono-Regular-55" transform="translate(280 0)"/>
     </g>
    </g>
    <g id="patch_18">
     <path d="M 227.485 24.844262 
L 246.485 24.844262 
L 246.485 18.194262 
L 227.485 18.194262 
z
" style="fill: url(#h33c3718276); stroke: #3987e5; stroke-width: 1.2; stroke-linejoin: miter"/>
    </g>
    <g id="text_23">
     <!-- AggreVaTe -->
     <g style="fill: #ebebec" transform="translate(254.085 24.844262) scale(0.095 -0.095)">
      <defs>
       <path id="UbuntuMono-Regular-39" d="M 1446 0 
Q 1254 550 1078 1097 
Q 902 1645 745 2150 
Q 589 2656 457 3094 
Q 326 3533 236 3875 
Q 147 4218 96 4435 
L 640 4435 
Q 742 3949 889 3395 
Q 1037 2842 1200 2291 
Q 1363 1741 1520 1251 
Q 1677 762 1805 397 
Q 1926 762 2089 1258 
Q 2253 1754 2422 2307 
Q 2592 2861 2736 3411 
Q 2880 3962 2970 4435 
L 3501 4435 
Q 3450 4198 3322 3731 
Q 3194 3264 3008 2649 
Q 2822 2035 2598 1353 
Q 2374 672 2125 0 
L 1446 0 
z
" transform="scale(0.015625)"/>
       <path id="UbuntuMono-Regular-37" d="M 1542 0 
L 1542 4006 
L 314 4006 
L 314 4435 
L 3270 4435 
L 3270 4006 
L 2042 4006 
L 2042 0 
L 1542 0 
z
" transform="scale(0.015625)"/>
      </defs>
      <use xlink:href="#UbuntuMono-Regular-24"/>
      <use xlink:href="#UbuntuMono-Regular-4a" transform="translate(56 0)"/>
      <use xlink:href="#UbuntuMono-Regular-4a" transform="translate(112 0)"/>
      <use xlink:href="#UbuntuMono-Regular-55" transform="translate(168 0)"/>
      <use xlink:href="#UbuntuMono-Regular-48" transform="translate(224 0)"/>
      <use xlink:href="#UbuntuMono-Regular-39" transform="translate(280 0)"/>
      <use xlink:href="#UbuntuMono-Regular-44" transform="translate(336 0)"/>
      <use xlink:href="#UbuntuMono-Regular-37" transform="translate(392 0)"/>
      <use xlink:href="#UbuntuMono-Regular-48" transform="translate(448 0)"/>
     </g>
    </g>
    <g id="patch_19">
     <path d="M 320.965 24.844262 
L 339.965 24.844262 
L 339.965 18.194262 
L 320.965 18.194262 
z
" style="fill: url(#hc231ae44f5); stroke: #d95926; stroke-width: 1.2; stroke-linejoin: miter"/>
    </g>
    <g id="text_24">
     <!-- LOLS -->
     <g style="fill: #ebebec" transform="translate(347.565 24.844262) scale(0.095 -0.095)">
      <defs>
       <path id="UbuntuMono-Regular-2f" d="M 698 0 
L 698 4435 
L 1197 4435 
L 1197 429 
L 3296 429 
L 3296 0 
L 698 0 
z
" transform="scale(0.015625)"/>
       <path id="UbuntuMono-Regular-32" d="M 1792 -96 
Q 1331 -96 976 147 
Q 621 390 416 902 
Q 211 1414 211 2221 
Q 211 3027 412 3539 
Q 614 4051 969 4294 
Q 1325 4538 1792 4538 
Q 2253 4538 2611 4294 
Q 2970 4051 3178 3539 
Q 3386 3027 3386 2221 
Q 3386 1414 3181 902 
Q 2976 390 2614 147 
Q 2253 -96 1792 -96 
z
M 1773 339 
Q 2118 339 2364 550 
Q 2611 762 2742 1181 
Q 2874 1600 2874 2221 
Q 2874 2848 2742 3267 
Q 2611 3686 2364 3894 
Q 2118 4102 1773 4102 
Q 1440 4102 1206 3894 
Q 973 3686 851 3270 
Q 730 2854 730 2221 
Q 730 1600 851 1181 
Q 973 762 1206 550 
Q 1440 339 1773 339 
z
" transform="scale(0.015625)"/>
       <path id="UbuntuMono-Regular-36" d="M 1683 -96 
Q 1376 -96 1123 -41 
Q 870 13 691 86 
Q 512 160 429 211 
L 589 627 
Q 710 557 995 451 
Q 1280 346 1683 346 
Q 1984 346 2201 422 
Q 2419 499 2540 659 
Q 2662 819 2662 1069 
Q 2662 1376 2508 1565 
Q 2355 1754 2115 1882 
Q 1875 2010 1613 2112 
Q 1395 2202 1200 2314 
Q 1005 2426 857 2566 
Q 710 2707 627 2896 
Q 544 3085 544 3328 
Q 544 3898 899 4218 
Q 1254 4538 1894 4538 
Q 2253 4538 2563 4458 
Q 2874 4378 3008 4269 
L 2842 3834 
Q 2701 3917 2441 4006 
Q 2182 4096 1875 4096 
Q 1664 4096 1475 4019 
Q 1286 3942 1164 3792 
Q 1043 3642 1043 3418 
Q 1043 3149 1158 2982 
Q 1274 2816 1482 2701 
Q 1690 2586 1952 2464 
Q 2240 2342 2464 2220 
Q 2688 2099 2841 1948 
Q 2995 1798 3075 1590 
Q 3155 1382 3155 1088 
Q 3155 525 2768 214 
Q 2381 -96 1683 -96 
z
" transform="scale(0.015625)"/>
      </defs>
      <use xlink:href="#UbuntuMono-Regular-2f"/>
      <use xlink:href="#UbuntuMono-Regular-32" transform="translate(56 0)"/>
      <use xlink:href="#UbuntuMono-Regular-2f" transform="translate(112 0)"/>
      <use xlink:href="#UbuntuMono-Regular-36" transform="translate(168 0)"/>
     </g>
    </g>
    <g id="patch_20">
     <path d="M 387.845 24.844262 
L 406.845 24.844262 
L 406.845 18.194262 
L 387.845 18.194262 
z
" style="fill: #d95926"/>
    </g>
    <g id="text_25">
     <!-- APPO -->
     <g style="fill: #ebebec" transform="translate(414.445 24.844262) scale(0.095 -0.095)">
      <defs>
       <path id="UbuntuMono-Regular-33" d="M 570 0 
L 570 4371 
Q 742 4416 947 4438 
Q 1152 4461 1353 4470 
Q 1555 4480 1709 4480 
Q 2227 4480 2563 4301 
Q 2899 4122 3062 3818 
Q 3226 3514 3226 3136 
Q 3226 2477 2832 2093 
Q 2438 1709 1638 1709 
L 1069 1709 
L 1069 0 
L 570 0 
z
M 1069 2125 
L 1594 2125 
Q 2163 2125 2438 2358 
Q 2714 2592 2714 3110 
Q 2714 3552 2470 3798 
Q 2227 4045 1734 4045 
Q 1523 4045 1340 4041 
Q 1158 4038 1069 4026 
L 1069 2125 
z
" transform="scale(0.015625)"/>
      </defs>
      <use xlink:href="#UbuntuMono-Regular-24"/>
      <use xlink:href="#UbuntuMono-Regular-33" transform="translate(56 0)"/>
      <use xlink:href="#UbuntuMono-Regular-33" transform="translate(112 0)"/>
      <use xlink:href="#UbuntuMono-Regular-32" transform="translate(168 0)"/>
     </g>
    </g>
   </g>
  </g>
 </g>
 <defs>
  <clipPath id="p306ad4a6e6">
   <rect x="49.29" y="28.66952" width="487.11" height="176.91048"/>
  </clipPath>
 </defs>
 <defs>
  <pattern id="h33c3718276" patternUnits="userSpaceOnUse" x="0" y="0" width="72" height="72">
   <rect x="0" y="0" width="73" height="73" fill="#161618"/>
   <path d="M -36 36 
L 36 -36 
M -33 39 
L 39 -33 
M -30 42 
L 42 -30 
M -27 45 
L 45 -27 
M -24 48 
L 48 -24 
M -21 51 
L 51 -21 
M -18 54 
L 54 -18 
M -15 57 
L 57 -15 
M -12 60 
L 60 -12 
M -9 63 
L 63 -9 
M -6 66 
L 66 -6 
M -3 69 
L 69 -3 
M 0 72 
L 72 0 
M 3 75 
L 75 3 
M 6 78 
L 78 6 
M 9 81 
L 81 9 
M 12 84 
L 84 12 
M 15 87 
L 87 15 
M 18 90 
L 90 18 
M 21 93 
L 93 21 
M 24 96 
L 96 24 
M 27 99 
L 99 27 
M 30 102 
L 102 30 
M 33 105 
L 105 33 
M 36 108 
L 108 36 
" style="fill: #3987e5; stroke: #3987e5; stroke-width: 1.0; stroke-linecap: butt; stroke-linejoin: miter"/>
  </pattern>
  <pattern id="hc231ae44f5" patternUnits="userSpaceOnUse" x="0" y="0" width="72" height="72">
   <rect x="0" y="0" width="73" height="73" fill="#161618"/>
   <path d="M -36 36 
L 36 -36 
M -33 39 
L 39 -33 
M -30 42 
L 42 -30 
M -27 45 
L 45 -27 
M -24 48 
L 48 -24 
M -21 51 
L 51 -21 
M -18 54 
L 54 -18 
M -15 57 
L 57 -15 
M -12 60 
L 60 -12 
M -9 63 
L 63 -9 
M -6 66 
L 66 -6 
M -3 69 
L 69 -3 
M 0 72 
L 72 0 
M 3 75 
L 75 3 
M 6 78 
L 78 6 
M 9 81 
L 81 9 
M 12 84 
L 84 12 
M 15 87 
L 87 15 
M 18 90 
L 90 18 
M 21 93 
L 93 21 
M 24 96 
L 96 24 
M 27 99 
L 99 27 
M 30 102 
L 102 30 
M 33 105 
L 105 33 
M 36 108 
L 108 36 
" style="fill: #d95926; stroke: #d95926; stroke-width: 1.0; stroke-linecap: butt; stroke-linejoin: miter"/>
  </pattern>
 </defs>
</svg>
